<svg width="434" height="148" viewBox="0 0 434 148" fill="none" xmlns="http://www.w3.org/2000/svg">
<g id="Car">
<path id="light-front" d="M19 62L9.5 63L5 79L13 76.5L19 62Z" fill="#C4C4C4"/>
<path id="light-rear" d="M420 44L407 45.5L426.5 61L420 44Z" fill="#C4C4C4"/>
<g id="Front Tire">
<circle id="Ellipse 4" cx="71" cy="106" r="37" fill="black"/>
<circle id="Ellipse 3" cx="70.9999" cy="106" r="24.975" fill="#666668"/>
<circle id="Ellipse 1" cx="71.0001" cy="106" r="12.025" fill="#999999"/>
<circle id="Ellipse 2" cx="71" cy="106" r="17" stroke="#9B9B9B" stroke-width="3"/>
<path id="Intersect" fill-rule="evenodd" clip-rule="evenodd" d="M48.7606 117.377C47.0117 113.965 46.0249 110.097 46.0249 106C46.0249 92.2066 57.2066 81.0249 70.9999 81.0249C79.4909 81.0249 86.9923 85.2622 91.5048 91.7377C86.7507 106.969 72.5351 118.025 55.7374 118.025C53.3532 118.025 51.0211 117.802 48.7606 117.377Z" fill="#1F1F1F" fill-opacity="0.31"/>
</g>
<g id="Rear Tire">
<circle id="Ellipse 4_2" cx="344" cy="106" r="37" fill="black"/>
<circle id="Ellipse 3_2" cx="344" cy="106" r="24.975" fill="#666668"/>
<circle id="Ellipse 1_2" cx="344" cy="106" r="12.025" fill="#999999"/>
<circle id="Ellipse 2_2" cx="344" cy="106" r="17" stroke="#9B9B9B" stroke-width="3"/>
<path id="Intersect_2" fill-rule="evenodd" clip-rule="evenodd" d="M321.761 117.377C320.012 113.965 319.025 110.097 319.025 106C319.025 92.2066 330.207 81.0249 344 81.0249C352.491 81.0249 359.992 85.2622 364.505 91.7377C359.751 106.969 345.535 118.025 328.737 118.025C326.353 118.025 324.021 117.802 321.761 117.377Z" fill="#1F1F1F" fill-opacity="0.31"/>
</g>
<path id="shadow-windshield" d="M192.5 12L122 37L116 40L141.5 46L200 12H192.5Z" fill="#2C6EAA"/>
<path id="body-main" d="M126.874 35.9115L140 37.9334C140 37.9334 178.208 21.2449 193.874 14.4115C192.34 14.3092 186.297 13.7671 187.352 12.4382C271.874 -8.58846 342.374 20.4115 371.374 32.4116C395.925 30.4588 432.374 33.9116 416.374 37.9334C419.111 39.8918 420.374 42.1425 420.374 44.4116L409.874 46.9116C410.495 47.8425 412.213 48.8288 414.415 50.0925C418.125 52.2228 423.21 55.1414 426.725 59.9116C427.991 61.6308 427.21 65.1708 426.431 68.6957C425.558 72.6521 424.688 76.5895 426.725 77.9116C430.302 86.1006 424.033 93.0419 419.737 97.7987C419.05 98.5603 418.413 99.2659 417.874 99.9116C415.949 104.084 403.001 108.164 386.437 111.529C386.725 109.531 386.874 107.489 386.874 105.412C386.874 81.9395 367.846 62.9116 344.374 62.9116C320.902 62.9116 301.874 81.9395 301.874 105.412C301.874 110.115 302.638 114.639 304.049 118.868L110.941 119.544C112.197 115.557 112.874 111.313 112.874 106.912C112.874 83.7157 94.0704 64.9116 70.8744 64.9116C47.6784 64.9116 28.8744 83.7157 28.8744 106.912C28.8744 111.562 29.6302 116.036 31.0257 120.217C-7.1008 115.964 9.37434 101.912 9.37434 101.912C3.9145 98.0575 4.43726 91.728 4.8471 86.7657C5.07531 84.0026 5.26851 81.6634 4.37434 80.4115C2.37434 77.6115 8.87434 76.2449 12.3743 75.9115L17.8743 62.9115H9.37434C12.1743 46.1115 88.8744 37.9115 126.874 35.9115Z" fill="#479CED"/>
<g id="shadows">
<path id="shadow-window" d="M206 20.1335C190 24.1335 165.667 38.5 156.5 46C212.5 48.8 261.5 46.4668 278 44.1335L320 35.1335C316.167 32.1335 305.1 24.9335 291.5 20.1335C274.5 14.1335 226 15.1335 206 20.1335Z" fill="#2C6EAA"/>
<path id="shadow-hood" d="M142 49.5C96 45.4999 49 53.5 23 62.1777C72 49.5 112.5 48.4703 140 56.0001L142 49.5Z" fill="#2C6EAA"/>
<path id="shadow-front-bumper" fill-rule="evenodd" clip-rule="evenodd" d="M36.3081 83.0476C31.6204 89.8247 28.8744 98.0475 28.8744 106.912C28.8744 111.562 29.6303 116.036 31.0258 120.217C-7.10077 115.964 9.37437 101.911 9.37437 101.911C3.91453 98.0575 4.43729 91.7279 4.84713 86.7656C4.93085 85.752 5.00986 84.7954 5.0322 83.9286L36.3081 83.0476Z" fill="#2C6EAA"/>
<path id="shadow-main" fill-rule="evenodd" clip-rule="evenodd" d="M278 45C284.228 57.2615 285.891 70.2819 284.967 81.5554L310.086 80.2965C304.923 87.3325 301.874 96.0161 301.874 105.412C301.874 110.115 302.638 114.639 304.049 118.868L110.941 119.544C112.197 115.557 112.874 111.314 112.874 106.912C112.874 101.031 111.666 95.432 109.483 90.3506L141.866 88.7275C142.641 76.2005 144.933 61.6609 146.861 51.8671C144.454 66.9824 144.136 79.1665 144.847 88.5781L279.93 81.8079C281.547 72.8626 281.458 60.9744 278 45ZM132 106L275.5 95L300 100.5L132 106Z" fill="#2C6EAA"/>
<path id="shadow-rear-bumper" d="M373.5 43.9255L372 39.9255C349.406 36.358 309.888 43.9529 292.47 48.3073C342.447 39.8127 367.314 41.8467 373.5 43.9255Z" fill="#2C6EAA"/>
<path id="shadow-rear" fill-rule="evenodd" clip-rule="evenodd" d="M426.951 60.2798C427.887 62.1034 427.158 65.406 426.431 68.6955L426.431 68.6956L426.431 68.6958C425.558 72.6522 424.688 76.5895 426.724 77.9116C430.302 86.1005 424.033 93.0418 419.737 97.7986C419.05 98.5602 418.412 99.2658 417.874 99.9116C415.949 104.084 403.001 108.163 386.437 111.529C386.725 109.531 386.874 107.489 386.874 105.412C386.874 95.6267 383.568 86.6142 378.011 79.4305L426.951 60.2798Z" fill="#2C6EAA"/>
</g>
<path id="handle" d="M251 55.5V60C259.748 57.3 269.978 57.875 274 58.5L272.869 54L251 55.5Z" fill="#080F19"/>
<path id="mirror" d="M174.5 31L157 46.5H185L180.5 33.5L174.5 31Z" fill="#031426"/>
</g>
</svg>
